<?xml version="1.0" standalone="no"?>
<!DOCTYPE svg PUBLIC "-//W3C//DTD SVG 1.1//EN" "http://www.w3.org/Graphics/SVG/1.1/DTD/svg11.dtd" >
<svg xmlns="http://www.w3.org/2000/svg">
<metadata></metadata>
<defs>
<font id="ca_kisskissbangbangregular" horiz-adv-x="1273" >
<font-face units-per-em="2048" ascent="1638" descent="-410" />
<missing-glyph horiz-adv-x="610" />
<glyph horiz-adv-x="2048" />
<glyph horiz-adv-x="2048" />
<glyph unicode="&#xd;" horiz-adv-x="2048" />
<glyph unicode=" "  horiz-adv-x="610" />
<glyph unicode="&#x09;" horiz-adv-x="610" />
<glyph unicode="&#xa0;" horiz-adv-x="610" />
<glyph unicode="!" horiz-adv-x="784" d="M51 174q0 89 80 148q71 53 164 53q74 0 120 -36.5t46 -94.5q0 -86 -78 -146q-76 -55 -166 -55q-77 0 -121.5 36.5t-44.5 94.5zM158 475l241 819h349l-224 -837h-352z" />
<glyph unicode="&#x22;" horiz-adv-x="716" d="M45 1018l29 440h291l-132 -440h-188zM395 1018l31 440h289l-129 -440h-191z" />
<glyph unicode="'" horiz-adv-x="458" d="M45 1018l29 440h291l-132 -440h-188z" />
<glyph unicode="+" horiz-adv-x="1073" d="M-8 608q-6 12 2 64l6 28q29 195 88 195h338l68 391q20 17 176 17q50 0 78 -10t24 -36l-61 -362h374l-8 -51q-11 -62 -18.5 -111.5t-11.5 -80.5t-5 -36q-3 -12 -4 -12h-376l-64 -364h-51q-3 0 -54 -3.5t-85 -3.5q-20 0 -36.5 1t-29.5 3.5t-19.5 7t-5.5 11.5l60 352h-385z " />
<glyph unicode="," horiz-adv-x="532" d="M20 -166q5 5 12.5 13t27.5 35t35 55.5t26.5 71t9.5 83.5l35 109h256q-10 -81 -90 -198t-182 -202z" />
<glyph unicode="-" horiz-adv-x="1230" d="M154 635q0 35 27.5 96.5t68.5 112.5t74 51h874v-51q0 2 -15 -37t-30.5 -78.5t-15.5 -38.5q0 -16 -28 -48t-38 -32h-909q-8 8 -8 25z" />
<glyph unicode="." horiz-adv-x="483" d="M0 203q0 89 54 148t139 59q84 0 137 -59t53 -148t-53 -148t-137 -59q-85 0 -139 59t-54 148z" />
<glyph unicode="/" horiz-adv-x="774" d="M53 -174l522 1839h343l-504 -1860h-348z" />
<glyph unicode="0" d="M47 530q0 219 160 510q129 230 276 353t326 123q222 0 332 -155.5t73 -412.5q-22 -147 -56 -265t-103 -245q-124 -229 -276 -339.5t-312 -110.5q-186 0 -303 148.5t-117 393.5zM426 489q0 -96 66 -96q113 0 245 266q107 213 107 359q0 32 -7 52.5t-20 29.5t-24 11.5 t-27 2.5q-62 0 -144 -116.5t-139 -265.5t-57 -243z" />
<glyph unicode="1" d="M348 23l314 1087h-152l-6 2q-7 3 -12 7.5t-5 10.5q0 3 2.5 13.5t9 37.5t11.5 52q25 98 25 102q0 26 100 92q103 68 139 68h422l-408 -1493h-428z" />
<glyph unicode="2" d="M61 6l109 375q109 87 161 129.5t129 109.5t122.5 113t98.5 107t99 125q17 23 49.5 126t32.5 134q0 26 -16 26q-44 0 -77 -41t-67 -135q-32 -70 -32 -121h-377q7 43 39 144q28 87 58.5 149t76 115.5t105.5 85.5t143.5 50t193.5 18q166 0 254 -78.5t88 -184.5 q0 -50 -27 -150t-67 -171q-6 -9 -17.5 -27t-56 -76t-98 -121t-145 -159t-195.5 -193l350 2l-106 -358z" />
<glyph unicode="3" d="M78 264l391 45q0 -33 14 -33q47 0 85 41t81 144q37 84 37 145q0 21 -39 39.5t-77 27.5t-42 7l45 262q0 -1 21.5 -3.5t56 -4.5t62.5 -2q50 2 87.5 36.5t76.5 125.5q32 74 32 131q0 26 -16 26q-55 0 -96 -69q-273 184 -273 192q42 42 80 68.5t70 41.5t80.5 22t86.5 8.5 t115 1.5q166 0 254 -78.5t88 -184.5q0 -122 -76 -276t-161 -225h6q25 -54 25 -113q0 -94 -45 -211q-41 -105 -79 -175.5t-88.5 -130t-112.5 -92.5t-145.5 -51t-193.5 -18q-177 0 -263.5 84t-86.5 219z" />
<glyph unicode="4" d="M94 698l479 803h338l-284 -559h149l90 203h342l-75 -203h81l-114 -334h-56l-202 -606h-361l-12 21l213 585h-578z" />
<glyph unicode="5" d="M53 274q8 117 35 191h361q-9 -21 -21 -66t-12 -69v-11q0 -43 37 -45q52 0 85.5 26t75.5 118l64 184q4 16 4 23q0 26 -25.5 43.5t-50.5 21.5l-26 4h-347l254 805h875l-96 -305h-498q0 -4 -42.5 -117.5t-45.5 -113.5q26 4 65 4q35 0 62 -1.5t70 -7.5t75 -20t64 -35.5 t51 -58t23 -84.5l2 -33q0 -25 -5 -53.5t-10.5 -49.5t-17.5 -55t-18 -49.5t-22 -54t-20 -47.5q-36 -91 -66 -153t-68.5 -117t-80.5 -87.5t-99.5 -56.5t-127 -33.5t-162.5 -9.5q-90 0 -157.5 25t-107 69t-58.5 99t-19 120z" />
<glyph unicode="6" d="M37 225q0 20 5 46t9.5 44t15.5 53t15 50q24 80 50 158.5t41.5 123t46 129.5t42.5 119l21 56q3 8 8.5 23.5t7.5 21.5q40 106 76.5 176.5t85.5 130.5t110 93t143.5 51t192.5 18q90 0 157.5 -25t107 -69.5t58.5 -99.5t19 -120q-8 -116 -35 -190h-360q9 21 21 66t12 69v10 q0 43 -37 45q-47 0 -84 -41t-80 -145q-11 -20 -76 -182q76 10 111 10q37 0 78 -10q155 -34 192 -203q2 -20 2 -55q0 -24 -2 -47t-4 -38t-7.5 -35.5t-7.5 -28t-8.5 -26.5t-7.5 -22q-28 -87 -58.5 -149t-76 -115.5t-105.5 -85.5t-143.5 -50t-193.5 -18q-86 0 -153.5 23 t-107.5 61t-60.5 83.5t-20.5 94.5zM426 254q0 -27 16 -27q44 0 77 41t67 135q32 70 32 121q0 27 -10 27q-41 0 -76 -37t-73 -129q-33 -72 -33 -131z" />
<glyph unicode="7" d="M168 1100l76 399h895l-443 -1497h-428l-12 21l344 1077h-432z" />
<glyph unicode="8" d="M63 274q0 68 33 193q41 137 99.5 227.5t154.5 147.5h-10q-8 36 -8 82q0 82 30 174q28 87 58.5 149t76.5 115.5t106 85.5t143.5 50t193.5 18q166 0 254 -78.5t88 -184.5q0 -79 -45 -192q-45 -114 -87 -184.5t-106 -124.5h7q24 -52 24 -113q0 -94 -45 -211 q-53 -132 -101 -213t-118.5 -142t-166 -86.5t-232.5 -25.5q-90 0 -158.5 25t-109.5 69t-61 99t-20 120zM453 309q0 -33 14 -33q47 0 85 41t81 144q37 84 37 145q0 35 -23 35q-50 0 -87 -46.5t-73 -150.5q-34 -74 -34 -135zM700 954q0 -26 11 -26q41 0 76 37t73 129 q33 72 33 131q0 26 -16 26q-44 0 -77 -41t-67 -135q-33 -72 -33 -121z" />
<glyph unicode="9" d="M37 274q8 117 35 191h360q-9 -21 -21 -66t-12 -69v-11q0 -43 37 -45q46 0 83 41.5t81 145.5q11 20 76 182q-76 -10 -111 -10q-37 0 -78 10q-155 34 -192 203q-2 20 -2 55q0 24 2 47t4 38t7.5 35.5t7.5 28t8.5 26.5t7.5 22q28 87 58.5 149t76 115.5t105.5 85.5t143.5 50 t193.5 18q166 0 254 -78.5t88 -184.5q0 -20 -4.5 -46t-9.5 -43.5t-16 -52.5t-15 -50q-24 -80 -50 -159.5t-41 -122t-46.5 -131t-42.5 -118.5l-20 -55q-1 -2 -17 -45q-40 -106 -76.5 -176.5t-85.5 -130.5t-110 -93t-143.5 -51t-192.5 -18q-90 0 -157.5 25t-107 69t-58.5 99 t-19 120zM668 954q0 -26 10 -26q41 0 76 37t73 129q33 72 33 131q0 26 -16 26q-44 0 -77 -41t-67 -135q-32 -70 -32 -121z" />
<glyph unicode=":" horiz-adv-x="538" d="M0 203q0 89 54 148t139 59q84 0 137 -59t53 -148t-53 -148t-137 -59q-85 0 -139 59t-54 148zM135 711q0 88 53.5 147.5t137.5 59.5q83 0 136.5 -59.5t53.5 -147.5q0 -89 -53 -149t-137 -60t-137.5 60t-53.5 149z" />
<glyph unicode=";" horiz-adv-x="569" d="M104 -154l29 441h291l-131 -441h-189zM129 600q0 88 53.5 147.5t136.5 59.5q84 0 137.5 -59.5t53.5 -147.5q0 -89 -53.5 -149t-137.5 -60t-137 60t-53 149z" />
<glyph unicode="=" horiz-adv-x="1112" d="M59 442q0 55 56 133t106 78h670v-51q0 2 -13.5 -24.5t-26.5 -53.5t-13 -26q0 -16 -28 -48t-38 -32h-704q-9 9 -9 24zM184 811q0 55 56 133t106 78h670v-51q0 2 -13 -25t-26.5 -54t-13.5 -26q0 -16 -28 -48t-38 -32h-704q-9 9 -9 25z" />
<glyph unicode="?" horiz-adv-x="1132" d="M80 174q0 88 76 144.5t168 56.5q74 0 119.5 -36.5t45.5 -94.5q0 -87 -76.5 -144t-166.5 -57q-77 0 -121.5 36.5t-44.5 94.5zM197 457l2 24q3 158 143 240q13 10 258 104q139 53 139 140q0 63 -55 63q-71 0 -117 -61q-37 -49 -37 -99v-8h-297q4 111 75.5 211.5 t181.5 159.5t223 59q146 0 246 -75t100 -214q0 -276 -418 -442q-98 -40 -98 -98v-4h-346z" />
<glyph unicode="A" horiz-adv-x="1374" d="M0 41l707 1432l43 28h475l43 -24v-1475h-441v244h-309l-127 -244h-383zM662 537h165v262l-36 12z" />
<glyph unicode="B" horiz-adv-x="1351" d="M102 12v17q396 1370 424 1466h619q67 0 141.5 -46.5t125 -119t50.5 -139.5v-74q0 -141 -68 -241.5t-196 -139.5q123 -91 123 -266q0 -115 -62 -224.5t-168 -179t-223 -69.5h-733q-17 0 -33 16zM653 401q0 -28 37 -28q15 0 35 -1t25 -1q45 0 86 31.5t41 72.5q0 38 -28 63 t-69 25h-82q-45 -139 -45 -162zM803 922q22 -3 22 -9h76q44 0 79.5 46.5t35.5 93.5q0 16 -18 44.5t-35 28.5h-101q-9 -27 -59 -204z" />
<glyph unicode="C" horiz-adv-x="1187" d="M102 528q0 102 25.5 213.5t71.5 219t116 204t152.5 169.5t187 116t215.5 43q199 0 316 -135t117 -350q0 -50 -11 -136h-440q14 60 14 113q0 102 -71 102q-39 0 -93.5 -68t-99.5 -188q-74 -203 -74 -360q0 -46 20 -69t54 -23q77 0 160 203h444q-28 -83 -68.5 -165 t-99 -162.5t-125 -141.5t-150 -98.5t-169.5 -37.5q-225 0 -358.5 148.5t-133.5 402.5z" />
<glyph unicode="D" horiz-adv-x="1366" d="M102 2v33l104 331q16 50 50 159q302 976 309 976h424q96 0 181.5 -35.5t144.5 -93t93 -130t34 -146.5q0 -37 -8 -68l-158 -592q-20 -65 -42 -116.5t-58 -106t-80.5 -94t-110 -71t-145.5 -46.5h-738zM606 391l6 -12h123q36 0 66.5 15t49 39t28.5 44t16 39q129 418 129 442 q0 55 -35 95.5t-82 40.5h-71z" />
<glyph unicode="E" horiz-adv-x="1224" d="M2 2l442 1497h928l-115 -395h-487l-51 -166h371l-115 -381h-371l-47 -160h490l-115 -395h-930z" />
<glyph unicode="F" horiz-adv-x="1134" d="M-55 2l442 1497h930l-117 -395h-487l-47 -164h372l-114 -383h-373l-168 -555h-438z" />
<glyph unicode="G" horiz-adv-x="1280" d="M35 535q0 109 28 224t78.5 222.5t125 203.5t162.5 167.5t197.5 113t223.5 41.5q98 0 185 -39t149.5 -104.5t98.5 -157t36 -192.5q0 -49 -10 -107h-453q23 103 23 131q0 70 -72 70q-102 0 -225 -250q-115 -233 -115 -377q0 -99 92 -102h8q112 0 156 102h-96q-13 0 -13 11 q0 4 4 16l68 192q10 24 27 27h569q-22 -131 -90 -262t-168.5 -238t-238.5 -174t-285 -67q-112 0 -202.5 46t-146.5 123.5t-86 175t-30 204.5z" />
<glyph unicode="H" horiz-adv-x="1275" d="M-41 0l442 1499h441l-172 -579h243l168 579h424l-409 -1499h-428l-13 27l148 510h-248l-158 -537h-438z" />
<glyph unicode="I" horiz-adv-x="774" d="M102 23l426 1472h424l-407 -1493h-430z" />
<glyph unicode="J" horiz-adv-x="999" d="M8 342q0 7 6 22.5t6 16.5l80 285h404q-18 -60 -33.5 -109.5t-23 -74t-13 -42t-7 -23t-1.5 -7.5q0 -50 66 -50l36 2l332 1119h412l-326 -1190q-41 -153 -172 -230t-301 -77q-81 0 -163.5 26t-149.5 71t-109.5 114t-42.5 147z" />
<glyph unicode="K" horiz-adv-x="1427" d="M102 23l426 1472h424l-90 -328l295 328h481l-491 -557l166 -936h-428l-21 21l-80 505l-139 -159l-100 -367h-430z" />
<glyph unicode="L" horiz-adv-x="946" d="M2 23l426 1472h424l-299 -1077l18 -10h379l-102 -406h-834z" />
<glyph unicode="M" horiz-adv-x="1873" d="M59 18l467 1463l31 20h586l16 -33l-29 -409l11 -23l293 465h634l-466 -1499h-418l-8 25l184 620l-377 -643l-20 -6h-273l51 840l-274 -836h-391z" />
<glyph unicode="N" horiz-adv-x="1290" d="M-55 2v55l434 1444h446l54 -487l14 -15l174 502h346l21 -28l-447 -1446l-33 -25h-323l-82 694l-17 33l-245 -727h-342z" />
<glyph unicode="O" horiz-adv-x="1253" d="M35 543q0 127 35 257t94 238q112 202 297.5 340t388.5 138q122 0 214 -45.5t145 -124.5t78.5 -175t25.5 -208q0 -130 -32 -260.5t-87 -235.5q-51 -97 -124.5 -183t-161.5 -152.5t-192 -105t-208 -38.5q-112 0 -203.5 47t-149.5 126t-89 177.5t-31 204.5zM467 489 q0 -96 65 -96q116 0 248 266q40 80 74.5 179.5t34.5 171.5q0 104 -82 104q-102 0 -225 -250q-115 -233 -115 -375z" />
<glyph unicode="P" horiz-adv-x="1337" d="M102 18l459 1467q17 0 49 16h463q365 0 365 -352q0 -71 -41 -231q-37 -172 -172.5 -289t-296.5 -117h-260l-162 -510h-375q-10 10 -29 16zM780 883h144q39 7 59.5 47.5t38.5 134.5q2 6 2 18q0 56 -92 56h-70z" />
<glyph unicode="Q" horiz-adv-x="1253" d="M31 545q0 102 28 213t78.5 217.5t126 203.5t164 169.5t198 115.5t224.5 43q113 0 204.5 -44t150.5 -120.5t90.5 -178.5t31.5 -220q-9 -102 -32.5 -198.5t-53.5 -169t-65 -136.5t-68 -108t-59.5 -75.5t-42.5 -46.5l-17 -15q-8 -8 -8 -17q0 -5 55 -82l-309 -202 q-16 19 -29 35.5t-21 26.5t-14 18.5t-9.5 12.5t-6 7.5t-3.5 4.5t-3 1q-74 -18 -131 -18q-145 0 -255 75t-167 202t-57 286zM442 479q0 -27 10.5 -47t26.5 -29t29 -12.5t24 -3.5q61 0 126 67t128 195q111 224 111 361q0 31 -10.5 52.5t-27.5 31t-32 13t-30 3.5 q-68 0 -154 -118.5t-143.5 -268.5t-57.5 -244z" />
<glyph unicode="R" horiz-adv-x="1292" d="M16 31l412 1439q6 3 21.5 14t21.5 15h447q227 0 336.5 -99.5t109.5 -301.5q-3 -120 -49.5 -225.5t-120.5 -145.5l-43 -18q-1 -1 -4 -3t-4 -2.5t-3.5 -2.5t-3.5 -3l-3 -3t-3 -3.5t-2 -4t-1.5 -4.5t-0.5 -5q0 -10 27 -73t27 -87q8 -13 8 -51q0 -96 -78 -272v-154l8 -16 q0 -19 -16 -25h-385q-66 0 -66 59l94 394q0 24 -21.5 39.5t-47.5 15.5h-84l-123 -440q-10 -14 -57 -68h-359zM705 893h124q24 0 44 31.5t29 64.5t11 60q0 27 -24 44t-66 17h-55z" />
<glyph unicode="S" horiz-adv-x="1198" d="M86 406q0 50 12 100h404l-8 -88q0 -25 21.5 -48.5t47.5 -23.5q42 0 66 28t24 60q0 64 -92 164q-170 180 -172 182q-100 127 -100 303q0 93 71.5 196t176.5 170t198 67h209q117 0 216.5 -95t123.5 -217q10 -55 10 -94q0 -41 -10 -86h-401q12 26 12 57q0 38 -21 60t-55 22 q-38 0 -61 -24.5t-23 -55.5q0 -34 39.5 -87t161.5 -195q81 -93 117.5 -172t36.5 -158q0 -111 -74.5 -232.5t-184.5 -201.5t-206 -80h-154q-99 0 -189 66.5t-143 170.5t-53 212z" />
<glyph unicode="T" horiz-adv-x="1124" d="M102 1100l117 395h1124l-114 -395h-348l-301 -1098h-428l-15 21l314 1077h-349z" />
<glyph unicode="U" horiz-adv-x="1247" d="M59 346q0 28 7 72l335 1079h426l4 -27q-309 -966 -309 -1034q0 -25 20.5 -42t45.5 -17q47 0 84 57l356 1063h422l-383 -1214q-50 -117 -175.5 -208.5t-258.5 -115.5h-230q-88 0 -169.5 60.5t-128 150t-46.5 176.5z" />
<glyph unicode="V" horiz-adv-x="1425" d="M172 1499h453l14 -26v-922h18l418 948h486l-715 -1497h-596z" />
<glyph unicode="W" horiz-adv-x="1896" d="M92 33l359 1462h419l17 -8l-199 -692l2 -19l445 719h295l14 -27l-115 -671l4 -21l320 719h477l8 -8l-711 -1485h-561l-8 8l86 514l-309 -522h-529z" />
<glyph unicode="X" horiz-adv-x="1572" d="M2 2l580 741l-283 756h438l148 -362l293 362h571l-700 -829l247 -668h-438l-115 295l-245 -295h-496z" />
<glyph unicode="Y" horiz-adv-x="1142" d="M123 1499h438l133 -350l275 350h571l-690 -825l-182 -672h-430l-13 21l197 651z" />
<glyph unicode="Z" horiz-adv-x="1200" d="M29 2l118 395l615 705h-414l129 397h930l-125 -395l-649 -707h442l-114 -395h-932z" />
<glyph unicode="a" horiz-adv-x="980" d="M61 250q0 169 102.5 265t311.5 132q153 26 192 43q53 23 58 74v12q0 34 -26.5 54t-63.5 20q-66 0 -88.5 -20t-52.5 -111h-254q-9 9 -9 26q0 85 60 165.5t149.5 128.5t173.5 48h125q308 0 308 -251q0 -48 -17 -107l-199 -620q-36 -109 -198 -109h-117l-16 35 q-58 -55 -187 -55q-120 0 -186 71t-66 199zM328 289q0 -35 35 -51.5t79 -16.5q84 0 131 68l50 141q-10 -2 -28 -6t-63.5 -15.5t-82 -22.5t-69.5 -25.5t-40 -26.5q-12 -24 -12 -45z" />
<glyph unicode="b" horiz-adv-x="989" d="M0 20l467 1479h291q14 -17 14 -24l-125 -406q77 21 144 21q264 0 264 -322q0 -148 -58 -334q-60 -204 -188 -325t-317 -121q-114 0 -160 88l-25 -76h-297q-10 13 -10 20zM422 365q0 -50 92 -50q105 0 170 207q35 113 35 172q0 92 -84 92q-82 0 -103 -67 q-110 -343 -110 -354z" />
<glyph unicode="c" horiz-adv-x="1003" d="M102 352q0 193 88.5 383t182.5 266q117 93 336 93q317 0 317 -299q0 -57 -12 -121h-299q24 62 24 110q0 80 -73 80q-89 0 -144 -119q-65 -141 -106 -385q0 -43 22.5 -66.5t59.5 -23.5q90 0 133 123h291q0 -3 4 -7t4 -9v-2q-38 -192 -156.5 -287.5t-339.5 -95.5 q-146 0 -239 93.5t-93 266.5z" />
<glyph unicode="d" horiz-adv-x="872" d="M10 283q0 96 33 194q99 308 235 461.5t314 153.5q60 0 141 -23l121 389q13 19 31 25h291l-465 -1463q-2 -6 -23 -20h-297l25 76q-53 -80 -180 -80q-104 0 -165 77.5t-61 209.5zM297 340q0 -86 88 -86q40 0 72 24.5t45 65.5l121 375q6 15 6 29q0 38 -64 38 q-135 0 -217 -264q-4 -14 -15 -47t-15 -46t-10.5 -34t-8.5 -33.5t-2 -21.5z" />
<glyph unicode="e" horiz-adv-x="956" d="M102 352q0 208 82 398t191 264q118 80 334 80q317 0 317 -299q0 -111 -49 -291h-535q-24 -76 -24 -121q0 -113 80 -113q90 0 133 123h291q0 -2 3 -17t3 -22q-26 -166 -163.5 -264t-330.5 -98q-332 0 -332 360zM496 674h219q24 62 24 110q0 80 -73 80q-112 0 -170 -190z " />
<glyph unicode="f" horiz-adv-x="628" d="M0 23l225 682h-98l96 282h86q55 183 165 283t249 100q82 0 166 -35l-90 -245q-28 4 -45 4q-90 0 -127 -107h170l-90 -282h-170l-222 -705h-301q-14 14 -14 23z" />
<glyph unicode="g" horiz-adv-x="978" d="M8 -143q0 38 8 65h244q-4 -20 -4 -35q0 -90 100 -90q53 0 80 41l76 230q-50 -35 -111 -35q-106 0 -176.5 77t-70.5 220q0 74 23 172t69.5 201t107 190t144 143t172.5 56h61q21 0 53.5 -18t44.5 -36q19 16 97 31h223l-397 -1251q-52 -161 -140 -218t-272 -57 q-148 0 -240 89t-92 225zM436 397q0 -44 28 -73t68 -29q49 0 60 33l139 428q0 16 -16 28.5t-39 12.5q-57 0 -114 -67t-91.5 -160.5t-34.5 -172.5z" />
<glyph unicode="h" horiz-adv-x="1044" d="M16 0l465 1495h326q-15 -46 -55.5 -188.5t-67.5 -231.5q110 29 176 29q123 0 186.5 -61t63.5 -142q0 -48 -14 -92l-269 -809h-325q239 763 239 774q0 47 -65 47q-38 0 -69.5 -27t-49.5 -81l-227 -713h-314z" />
<glyph unicode="i" horiz-adv-x="585" d="M2 0l342 1067h293q12 -6 12 -29q0 -22 -332 -1038h-315zM418 1321q0 79 54.5 128.5t137.5 49.5q146 0 146 -125q0 -72 -65 -125t-142 -53q-60 0 -95.5 34.5t-35.5 90.5z" />
<glyph unicode="j" horiz-adv-x="899" d="M-74 25q0 13 4 41q7 38 28.5 120t33.5 138h313q-80 -243 -80 -248q0 -33 45 -33q68 0 97 100l292 926h299q8 -5 11 -29l-332 -1038q-18 -57 -49 -99t-67 -66.5t-85 -39t-95 -19.5t-105 -5q-125 0 -217.5 73t-92.5 179zM737 1319q0 79 55 129.5t138 50.5q143 0 143 -125 q0 -74 -64 -126t-141 -52q-59 0 -95 34t-36 89z" />
<glyph unicode="k" horiz-adv-x="1169" d="M-12 0l475 1499h321l-221 -663l295 233h461l-531 -432l193 -637h-344l-111 432l-120 -100l-105 -332h-313z" />
<glyph unicode="l" horiz-adv-x="591" d="M0 18l477 1481h320l10 -18l-483 -1481h-306z" />
<glyph unicode="m" horiz-adv-x="1429" d="M-39 0l338 1069h317l-24 -78q96 78 260 78q174 0 195 -117q106 117 313 117q83 0 134.5 -38.5t51.5 -98.5q0 -13 -4 -37l-289 -895h-309l225 705q-178 0 -200 -68l-203 -637h-315l223 705q-91 0 -138 -16t-59 -52l-203 -637h-313z" />
<glyph unicode="n" horiz-adv-x="989" d="M-70 0l316 1004q36 65 178 65h178l-29 -86q70 94 246 94q96 0 176 -58t80 -142q0 -22 -6 -37l-268 -840h-334q213 682 213 690q0 45 -53 45q-124 0 -158 -100l-205 -635h-334z" />
<glyph unicode="o" horiz-adv-x="991" d="M113 311q0 106 30 230q30 115 62 196.5t78.5 152t107.5 113t145.5 66t194.5 23.5q64 0 117 -18.5t89 -49t61.5 -71.5t37 -85.5t11.5 -91.5q0 -109 -46 -252q-40 -126 -77.5 -211.5t-85.5 -157.5t-107 -113t-136.5 -63t-178.5 -22q-79 0 -139 28t-95 78t-52 112t-17 136z M393 356q0 -96 78 -96q72 0 125 59.5t104 206.5q43 114 43 209q0 92 -84 92q-77 0 -129.5 -66.5t-95.5 -217.5q-41 -136 -41 -187z" />
<glyph unicode="p" horiz-adv-x="985" d="M-98 -418l473 1487h311l-22 -80q54 78 178 78q107 0 167 -76t60 -209q0 -98 -33 -196q-100 -317 -180 -436q-121 -183 -326 -183q-74 0 -184 29l-123 -389q-13 -22 -28 -25h-293zM451 317q0 -41 63 -41q46 0 68 5t48 34t46 78t55 150q43 116 43 172q0 86 -92 86 q-77 0 -104 -80q-127 -391 -127 -404z" />
<glyph unicode="q" horiz-adv-x="1054" d="M121 317q0 96 24 201.5t71.5 206t111.5 181t152 130t184 49.5q111 0 161 -92l25 76h297q10 -13 10 -20l-467 -1463h-293l-12 23l131 409q-59 -38 -149 -38q-112 0 -179 89t-67 248zM438 375q0 -94 84 -94q82 0 103 69l110 355q0 27 -22.5 44t-65.5 17q-32 0 -69 -35 t-68 -89t-51.5 -126.5t-20.5 -140.5z" />
<glyph unicode="r" horiz-adv-x="710" d="M0 0l342 1069h307l-31 -90q116 90 236 90h31l-105 -326q-201 -21 -288 -188l-179 -555h-313z" />
<glyph unicode="s" horiz-adv-x="837" d="M37 334q0 51 14 100h283v-61q0 -109 69 -109q76 0 76 82q0 22 -28.5 60.5t-62 71t-65 61.5t-32.5 30q-66 84 -66 187q0 152 109.5 244t279.5 92q308 0 308 -310q0 -11 -4 -57h-267q2 6 2 25q0 61 -59 61q-53 0 -53 -61q0 -28 28.5 -64t69 -72.5t81 -75.5t69 -85.5 t28.5 -90.5q0 -96 -58 -181t-146 -133t-177 -48h-100q-72 0 -141 46.5t-113.5 125t-44.5 162.5z" />
<glyph unicode="t" horiz-adv-x="739" d="M45 23l217 682h-90l96 282h84l111 352h319l-116 -352h176l-90 -282h-174l-226 -705h-291q-16 16 -16 23z" />
<glyph unicode="u" horiz-adv-x="1058" d="M35 219q0 42 16 98l240 752h334l-209 -676q-4 -12 -4 -14q0 -45 53 -45q124 0 158 100l213 635h325l-342 -1069h-330l29 86q-70 -94 -246 -94q-37 0 -77 14t-76.5 40.5t-60 71.5t-23.5 101z" />
<glyph unicode="v" horiz-adv-x="1120" d="M59 0l201 1069h340l-139 -686l483 686h352l25 -27l-752 -1042h-510z" />
<glyph unicode="w" horiz-adv-x="1599" d="M18 0l312 1069h340l-154 -502l340 502h377l-123 -502l320 502h372l25 -27l-705 -1042h-446l108 463l-348 -463h-418z" />
<glyph unicode="x" horiz-adv-x="1040" d="M-2 0l471 575l-203 494h352l87 -207l169 207h369l-416 -508l234 -561h-354l-113 276l-227 -276h-369z" />
<glyph unicode="y" horiz-adv-x="1196" d="M10 -414l387 551l-43 932h338l17 -494l346 494h352l27 -29l-1049 -1454h-375z" />
<glyph unicode="z" horiz-adv-x="985" d="M-45 0l84 287l553 499h-385l84 287h835l-98 -287l-549 -499h428l-98 -287h-854z" />
<glyph unicode="&#xa8;" horiz-adv-x="927" d="M49 1294q0 79 63 141t154 62q168 0 168 -135q0 -85 -71.5 -147t-157.5 -62q-65 0 -110.5 39.5t-45.5 101.5zM498 1298q0 90 63 147.5t158 57.5q168 0 168 -143q0 -80 -72.5 -143.5t-165.5 -63.5q-68 0 -109.5 40.5t-41.5 104.5z" />
<glyph unicode="&#xad;" horiz-adv-x="1230" d="M154 635q0 35 27.5 96.5t68.5 112.5t74 51h874v-51q0 2 -15 -37t-30.5 -78.5t-15.5 -38.5q0 -16 -28 -48t-38 -32h-909q-8 8 -8 25z" />
<glyph unicode="&#xc4;" horiz-adv-x="1374" d="M0 41l707 1432l43 28h475l43 -24v-1475h-441v244h-309l-127 -244h-383zM608 1720q0 79 63 141t154 62q168 0 168 -135q0 -85 -71.5 -147t-157.5 -62q-65 0 -110.5 39.5t-45.5 101.5zM662 537h165v262l-36 12zM1057 1724q0 90 63 147.5t158 57.5q168 0 168 -143 q0 -80 -72.5 -143.5t-165.5 -63.5q-68 0 -109.5 40.5t-41.5 104.5z" />
<glyph unicode="&#xd6;" horiz-adv-x="1253" d="M35 543q0 127 35 257t94 238q112 202 297.5 340t388.5 138q122 0 214 -45.5t145 -124.5t78.5 -175t25.5 -208q0 -130 -32 -260.5t-87 -235.5q-51 -97 -124.5 -183t-161.5 -152.5t-192 -105t-208 -38.5q-112 0 -203.5 47t-149.5 126t-89 177.5t-31 204.5zM467 489 q0 -96 65 -96q116 0 248 266q40 80 74.5 179.5t34.5 171.5q0 104 -82 104q-102 0 -225 -250q-115 -233 -115 -375zM553 1712q0 79 63 141t154 62q168 0 168 -135q0 -85 -71.5 -147t-157.5 -62q-65 0 -110.5 39.5t-45.5 101.5zM1001 1716q0 90 63.5 147.5t158.5 57.5 q168 0 168 -143q0 -80 -72.5 -143.5t-165.5 -63.5q-68 0 -110 40.5t-42 104.5z" />
<glyph unicode="&#xdc;" horiz-adv-x="1247" d="M59 346q0 28 7 72l335 1079h426l4 -27q-309 -966 -309 -1034q0 -25 20.5 -42t45.5 -17q47 0 84 57l356 1063h422l-383 -1214q-50 -117 -175.5 -208.5t-258.5 -115.5h-230q-88 0 -169.5 60.5t-128 150t-46.5 176.5zM555 1710q0 79 63 141t154 62q168 0 168 -135 q0 -85 -71.5 -147t-157.5 -62q-65 0 -110.5 39.5t-45.5 101.5zM1004 1714q0 90 63 147.5t158 57.5q168 0 168 -143q0 -80 -72.5 -143.5t-165.5 -63.5q-68 0 -109.5 40.5t-41.5 104.5z" />
<glyph unicode="&#xdf;" horiz-adv-x="985" d="M-31 -102l455 1429q27 85 134.5 135.5t234.5 50.5q85 0 150 -24.5t102.5 -68t56 -96t18.5 -114.5q-17 -193 -137 -411q14 -58 14 -115q0 -158 -45 -289q-23 -67 -45.5 -117.5t-51.5 -102t-63.5 -87.5t-77.5 -64.5t-97 -42.5t-119 -14q-55 0 -138 17l93 295q12 -3 28 -3 q33 0 50 1.5t40 10t38 26.5t32 50t33 80q28 75 28 172q0 69 -61 82q26 90 57 183q44 2 69 19.5t52 72.5l51 176q0 22 -1 34.5t-6 30.5t-14.5 27.5t-27.5 17t-45 7.5q-35 0 -64.5 -34t-37.5 -77q-17 -69 -383 -1233q-12 -21 -29 -24h-293z" />
<glyph unicode="&#xe4;" horiz-adv-x="980" d="M61 250q0 169 102.5 265t311.5 132q153 26 192 43q53 23 58 74v12q0 34 -26.5 54t-63.5 20q-66 0 -88.5 -20t-52.5 -111h-254q-9 9 -9 26q0 85 60 165.5t149.5 128.5t173.5 48h125q308 0 308 -251q0 -48 -17 -107l-199 -620q-36 -109 -198 -109h-117l-16 35 q-58 -55 -187 -55q-120 0 -186 71t-66 199zM328 289q0 -35 35 -51.5t79 -16.5q84 0 131 68l50 141q-10 -2 -28 -6t-63.5 -15.5t-82 -22.5t-69.5 -25.5t-40 -26.5q-12 -24 -12 -45zM342 1292q0 79 63 141t154 62q168 0 168 -135q0 -85 -71.5 -147t-157.5 -62 q-65 0 -110.5 39.5t-45.5 101.5zM791 1296q0 90 63 147.5t158 57.5q168 0 168 -143q0 -80 -72.5 -143.5t-165.5 -63.5q-68 0 -109.5 40.5t-41.5 104.5z" />
<glyph unicode="&#xf6;" horiz-adv-x="991" d="M113 311q0 106 30 230q30 115 62 196.5t78.5 152t107.5 113t145.5 66t194.5 23.5q64 0 117 -18.5t89 -49t61.5 -71.5t37 -85.5t11.5 -91.5q0 -109 -46 -252q-40 -126 -77.5 -211.5t-85.5 -157.5t-107 -113t-136.5 -63t-178.5 -22q-79 0 -139 28t-95 78t-52 112t-17 136z M360 1290q0 79 63.5 141t154.5 62q167 0 167 -135q0 -85 -71.5 -147t-157.5 -62q-65 0 -110.5 39.5t-45.5 101.5zM393 356q0 -96 78 -96q72 0 125 59.5t104 206.5q43 114 43 209q0 92 -84 92q-77 0 -129.5 -66.5t-95.5 -217.5q-41 -136 -41 -187zM809 1294q0 90 63 147.5 t158 57.5q168 0 168 -143q0 -80 -72 -143.5t-165 -63.5q-68 0 -110 40.5t-42 104.5z" />
<glyph unicode="&#xfc;" horiz-adv-x="1058" d="M35 219q0 42 16 98l240 752h334l-209 -676q-4 -12 -4 -14q0 -45 53 -45q124 0 158 100l213 635h325l-342 -1069h-330l29 86q-70 -94 -246 -94q-37 0 -77 14t-76.5 40.5t-60 71.5t-23.5 101zM334 1292q0 79 63 141t154 62q168 0 168 -135q0 -85 -72 -147t-158 -62 q-64 0 -109.5 39.5t-45.5 101.5zM782 1296q0 90 63.5 147.5t158.5 57.5q167 0 167 -143q0 -80 -72 -143.5t-165 -63.5q-68 0 -110 40.5t-42 104.5z" />
<glyph unicode="&#x2000;" horiz-adv-x="964" />
<glyph unicode="&#x2001;" horiz-adv-x="1929" />
<glyph unicode="&#x2002;" horiz-adv-x="964" />
<glyph unicode="&#x2003;" horiz-adv-x="1929" />
<glyph unicode="&#x2004;" horiz-adv-x="643" />
<glyph unicode="&#x2005;" horiz-adv-x="482" />
<glyph unicode="&#x2006;" horiz-adv-x="321" />
<glyph unicode="&#x2007;" horiz-adv-x="321" />
<glyph unicode="&#x2008;" horiz-adv-x="241" />
<glyph unicode="&#x2009;" horiz-adv-x="385" />
<glyph unicode="&#x200a;" horiz-adv-x="107" />
<glyph unicode="&#x2010;" horiz-adv-x="1230" d="M154 635q0 35 27.5 96.5t68.5 112.5t74 51h874v-51q0 2 -15 -37t-30.5 -78.5t-15.5 -38.5q0 -16 -28 -48t-38 -32h-909q-8 8 -8 25z" />
<glyph unicode="&#x2011;" horiz-adv-x="1230" d="M154 635q0 35 27.5 96.5t68.5 112.5t74 51h874v-51q0 2 -15 -37t-30.5 -78.5t-15.5 -38.5q0 -16 -28 -48t-38 -32h-909q-8 8 -8 25z" />
<glyph unicode="&#x2012;" horiz-adv-x="1230" d="M154 635q0 35 27.5 96.5t68.5 112.5t74 51h874v-51q0 2 -15 -37t-30.5 -78.5t-15.5 -38.5q0 -16 -28 -48t-38 -32h-909q-8 8 -8 25z" />
<glyph unicode="&#x2013;" horiz-adv-x="1210" d="M154 635q0 35 27 96.5t67 112.5t73 51h857v-51q0 2 -14.5 -37t-30 -78.5t-15.5 -38.5q0 -16 -27.5 -48t-37.5 -32h-891q-8 8 -8 25z" />
<glyph unicode="&#x2014;" horiz-adv-x="1662" d="M74 635q0 55 59 158q59 102 111 102h1349v-51q0 -13 -32 -78q-31 -70 -31 -76q0 -17 -29 -49q-28 -31 -37 -31h-1382q-8 8 -8 25z" />
<glyph unicode="&#x2018;" horiz-adv-x="565" d="M-29 1077l285 418h229l-186 -416z" />
<glyph unicode="&#x2019;" horiz-adv-x="507" d="M-29 1081l103 416h315l-205 -416h-213z" />
<glyph unicode="&#x201a;" horiz-adv-x="487" d="M-14 0l102 416h315l-204 -416h-213z" />
<glyph unicode="&#x201c;" horiz-adv-x="802" d="M-29 1077l285 418h229l-186 -416zM371 1077l204 418h213l-102 -416z" />
<glyph unicode="&#x201d;" horiz-adv-x="802" d="M-29 1081l103 416h315l-205 -416h-213zM274 1081l187 416h327l-284 -416h-230z" />
<glyph unicode="&#x201e;" horiz-adv-x="802" d="M-14 0l102 416h315l-204 -416h-213zM289 0l186 416h328l-285 -416h-229z" />
<glyph unicode="&#x2022;" horiz-adv-x="585" d="M98 696q0 89 54 148t139 59q84 0 137 -59t53 -148t-53 -148t-137 -59q-85 0 -139 59t-54 148z" />
<glyph unicode="&#x202f;" horiz-adv-x="385" />
<glyph unicode="&#x205f;" horiz-adv-x="482" />
<glyph unicode="&#x25fc;" horiz-adv-x="1064" d="M0 0v1065h1065v-1065h-1065z" />
</font>
</defs>
</svg>
