<?xml version="1.0" encoding="utf-8"?>
<!-- Generator: Adobe Illustrator 14.0.0, SVG Export Plug-In . SVG Version: 6.00 Build 43363)  -->
<!DOCTYPE svg PUBLIC "-//W3C//DTD SVG 1.1//EN" "http://www.w3.org/Graphics/SVG/1.1/DTD/svg11.dtd">
<svg version="1.1" id="Layer_1" xmlns="http://www.w3.org/2000/svg" xmlns:xlink="http://www.w3.org/1999/xlink" x="0px" y="0px"
	 width="800px" height="320px" viewBox="0 0 800 320" enable-background="new 0 0 800 320" xml:space="preserve">
<path fill="#FFFFFF" d="M262.05,58.5l7.3-0.69l3.82-2.43l-2.08-3.47l-3.82-3.48h-3.48l1.39,3.82l-3.48,2.78l-3.47,1.04l3.48,1.74
	L262.05,58.5z M340.25,218.029l1.05-1.389l-0.35-2.781h-0.35l-3.48-5.909l-1.73-4.171l-2.09-7.639l-2.08-7.302l-2.08-3.47
	l-3.83-14.25l-4.17-7.301l-3.48-3.479l-3.48-1.39l-3.82-0.69l-5.56,4.171l-3.47,1.391l-3.82,3.479l-3.48,1.391l0.7,3.471l-1.73,6.26
	l-3.48,2.78l-1.74,3.479L285,188.5l-3.48-1.391l-3.83-0.351l-4.52-4.17l-0.35-5.562l0.7-7.299l3.82-2.779l3.83-0.69l3.47-5.56
	l0.35-7.3l1.04-3.48l3.48-2.08l3.48-3.48l-1.39-11.47l0.35-7.3l-1.74-7.3l-1.73-3.48l-3.83-2.43l-2.08-3.47l1.39-4.52l3.48-0.69
	v-3.47l-2.09-1.39l-2.78-3.47l-1.04-3.48l-3.83-2.43h-3.47l-3.82-1.74l-7.65-2.08l-3.48-1.74h-3.82l-3.48-1.04l-2.09-3.48
	l-3.48-2.08l-3.47-1.04l-3.13,0.7h-3.47l-3.48-2.78l-3.48-1.04l-3.82-2.08l-3.13,2.78l-3.47,1.74l-2.09,3.82l-3.48,4.17v3.48
	l1.74,3.82l3.48,2.08l0.35,3.13h-4.87l-3.82,2.09l-3.48,2.78l-2.43,3.47l1.74,11.12v4.17l-0.69,3.48l-1.04,3.82l-3.13,3.48
	l1.04-3.48v-7.3l-1.39,0.35l-1.05,7.3l-2.43,3.48l-0.69-3.48l1.39-3.47l-1.74-3.82l1.04-2.43l1.04-10.08l-3.47,2.78l-1.39,3.48
	l-2.43,3.47l-0.69,3.48l-2.78,3.48l-3.47-1.04l-4.52,6.6l0.35,3.47l-3.13,3.48l-3.48,2.78l2.09,6.95l-0.7,6.26l0.7,3.48l-0.35,3.82
	l-4.17,10.78l-3.13,3.83l-0.34,3.47l2.08,3.479l2.78,10.771l-2.43,3.83l-1.39,3.47l0.7,3.48l10.08,19.108l3.48-1.39l-2.09,3.479
	l4.87,11.121l2.09,14.6v10.779l-2.09,13.201l-1.39,3.818l-3.82,7.3l-3.13,10.771l-1.74,3.479l-2.43,3.82l-3.48,3.479l-1.39,1.039
	h1.74l20.51-2.09l58.74-7.289l4.17,3.129l37.89-6.26l17.04-3.48l2.43-7.299l6.26-10.771l0.35-10.771l1.04-3.479l1.04-1.739
	l0.35-0.691l4.17-3.129l2.78-3.479l-0.35-7.642l2.43-3.479l0.7-3.13l3.82-2.08l1.74,2.431l1.04,3.479l-0.69,1.05l2.43-1.05
	l2.09-3.479l0.69-7.641l-1.05-3.479L340.25,218.029z M309.03,258.061l-25.52,29.609l-25.67-29.77c-2.3-2.7-3.3-5.621-2.98-8.74
	c0.33-3.27,1.89-5.99,4.69-8.18c2.8-2.19,5.9-3.121,9.29-2.771c3.26,0.33,6.04,1.852,8.34,4.568l6.33,7.58l6.28-7.51
	c2.31-2.709,5.08-4.209,8.32-4.529c3.37-0.319,6.46,0.609,9.22,2.82c2.77,2.209,4.31,4.939,4.63,8.209
	C312.24,252.471,311.27,255.37,309.03,258.061z M172.03,67.89l3.48,0.35l6.95-2.08h3.83l3.47-2.09l3.13-5.56l6.95-1.04l3.82,1.04
	l3.48-0.35l7.3,2.44l7.65,6.25l3.48,1.39v-6.6l1.04-3.82l3.48-0.69l3.48,2.08l3.48-1.39l17.03,0.35l3.48-1.04l-2.08-3.48l-3.83-1.74
	l-0.35-3.48l-3.47-1.74h-1.04l-3.48-2.43l-0.34-3.83l-1.04-3.47l-2.08-3.82l-3.13-3.48h-1.74l-1.04,0.7l-0.35,0.35l-2.08,3.13
	l-3.48,1.74l-2.43-3.48l-7.3,2.78l-6.95-1.04l-1.74-3.13l-0.35-12.86l-6.95,1.04l-3.47,1.39l-6.95,4.17l-3.48,1.05l-14.6,1.04
	l-3.48,1.39l-6.25,1.39l-3.48,3.48l-7.3,4.52l-5.56,7.3l-3.13-1.39l-3.48,0.35l-3.82-0.69l-3.48-3.13l-8.34,3.13l-3.48,0.35
	l-3.82-1.74l-2.08-3.82l-6.6-6.95l-2.09-3.82l-3.48-0.69l-3.47-3.13l-3.82-0.7h-7.3l-3.48,1.39l-2.44,3.48l-1.74,1.04l3.13-7.3
	l-3.47,3.47l-3.48,2.09l-1.04,3.48l-1.39,1.39l-1.04-3.47l0.7-7.3l-5.91-7.3l-2.43-1.39L64.32,8.5l-7.65,8.69l-2.08,3.47l-7.3,3.13
	l-3.83,3.82l-3.47,2.43l-3.47,1.39l-3.82,0.35l-3.48,1.04H25.4l-3.82,2.08l-6.6,7.3L4.16,47.04l-3.47,2.09l1.74,1.74l3.82,1.39
	l3.48,2.78l4.17,6.95l38.23,7.3l12.51,5.56l1.39-0.35l7.3,1.04l3.47-1.04l3.82,1.39l9.39,1.04l3.48,2.09l0.69,6.6l3.48,0.35
	l5.56,1.74l3.82,3.48L106,92.23l1.74,3.48l-0.69,7.3l-1.39,3.48l1.39,3.13l3.48-1.04l3.82-0.35l-2.09,7.3l0.35,3.47l3.48,3.13h0.35
	l1.74,0.69l-0.34-3.47l3.82-5.91l5.21-10.77l2.09-7.3l2.08-3.82l3.13-3.82l1.39-6.95l3.13-5.21l-1.39,3.48l1.39,3.83l2.09,3.48
	l3.47-3.13l0.7-2.08l3.48-3.82l3.48-1.39l3.48,0.7L155,80.4l-3.47,2.78l-1.74,4.52l3.48,0.35l2.43-3.82l3.48-3.48l3.82-2.78
	l0.35-4.17l2.09-3.47l2.78-1.74L172.03,67.89z M194.28,79.36l-0.69,3.48v3.82l3.82-1.04l-0.69-7.3l0.35-1.04L194.28,79.36z"/>
<g>
	<path fill="#FFFFFF" d="M332.326,91.669c-1.296,6.755-3.854,13.311-12.834,16.053l-24.463,2.783l-0.124-1.087
		c0.062,0.544,9.415-50.354,9.822-50.4l14.066-1.6c8.766-0.997,15.806,5.223,16.548,11.746c0.085,0.748,0.103,1.503-0.017,2.273
		L332.326,91.669z M314.604,95.613c3.467-0.394,4.53-3.75,4.782-5.155c2.57-13.714,2.658-14.757,2.612-15.165
		c-0.278-2.446-2.277-4.283-4.384-4.044l-2.379,0.271l-4.958,24.173l0.25,0.384L314.604,95.613z"/>
	<path fill="#FFFFFF" d="M376.831,50.884l-2.313,13.548l-16.172,1.839l-1.073,5.697l12.299-1.399l-2.367,13.073l-12.3,1.399
		l-0.959,5.478l16.24-1.848l-2.313,13.547l-30.851,3.509l9.027-51.342L376.831,50.884z"/>
	<path fill="#FFFFFF" d="M416.528,46.506l-2.312,13.548l-11.553,1.314l-5.846,37.558l-14.201,1.616l-0.554-0.625l6.331-36.926
		l-11.552,1.314l2.382-13.556L416.528,46.506z"/>
	<path fill="#FFFFFF" d="M451.771,68.309l-1.356,0.773c-0.377,0.318-0.762,0.568-0.7,1.112c0.093,0.815,2.208,3.672,2.37,5.099
		c0.242,0.316,0.38,0.921,0.465,1.668c0.255,2.242-0.287,5.333-1.554,9.332l0.579,5.096l0.334,0.513
		c0.047,0.408-0.127,0.703-0.45,0.877l-12.775,1.453c-1.428,0.163-2.252-0.432-2.397-1.723l1.642-13.402
		c-0.124-1.087-1.432-1.696-2.52-1.572l-2.786,0.317l-2.415,15.074c-0.285,0.514-0.88,1.339-1.647,2.458l-11.892,1.353l-1.339-0.879
		l8.225-49.324c0.316-0.244,0.753-0.637,1.318-1.114l14.812-1.685c10.125-1.152,15.316,2.732,16.329,11.633
		C456.456,60.48,454.96,66.087,451.771,68.309z M438.027,57.001l-1.835,0.208l-1.287,7.443l4.145-0.472
		c1.768-0.201,2.227-4.039,2.198-5.48C441.117,57.544,439.929,56.785,438.027,57.001z"/>
	<path fill="#FFFFFF" d="M474.675,90.551c-10.261,1.167-16.74-7.387-17.791-16.628c-0.657-5.776,0.421-12.025,2.41-16.933
		c3.67-8.883,11.518-17.347,20.962-18.421c11.212-1.275,16.362,7.087,17.444,16.6c0.665,5.844-0.211,12.069-2.07,16.893
		C492.111,81.066,484.12,89.477,474.675,90.551z M473.812,61.19c-1.935,5.383-2.755,9.674-2.392,12.869
		c0.239,2.106,1.11,3.108,2.538,2.946c2.514-0.286,4.968-3.525,7.218-9.769c0.997-2.729,2.689-8.429,2.279-12.029
		c-0.231-2.038-1.144-3.38-3.113-3.156C478.102,52.305,475.904,55.377,473.812,61.19z"/>
	<path fill="#FFFFFF" d="M525.316,34.131l-7.889,51.075l-14.27,1.623l-0.484-0.632l8.575-50.466L525.316,34.131z"/>
	<path fill="#FFFFFF" d="M563.979,29.732l-2.312,13.548l-11.553,1.314l-5.847,37.558l-14.201,1.616l-0.554-0.625l6.332-36.926
		l-11.552,1.314l2.38-13.556L563.979,29.732z"/>
	<path fill="#FFFFFF" d="M611.061,24.309l13.998-1.592l-8.123,41.742c-1.641,5.555-7.593,10.706-13.184,12.375l-7.611,0.866
		c-6.115,0.696-12.221-5.769-12.877-11.544c-0.085-0.748-0.108-1.571-0.065-2.402l7.068-37.078l14.136-1.608l0.235,0.868
		c-4.421,22.252-6.52,34.056-6.356,35.481c0.132,1.156,1.379,1.84,2.398,1.724c1.02-0.116,1.9-0.834,2.568-2.219L611.061,24.309z"/>
	<path fill="#FFFFFF" d="M660.852,44.525l-1.354,0.773c-0.378,0.318-0.763,0.568-0.701,1.112c0.093,0.815,2.209,3.672,2.371,5.099
		c0.241,0.317,0.38,0.921,0.465,1.668c0.255,2.242-0.288,5.333-1.555,9.332l0.58,5.096l0.333,0.513
		c0.047,0.408-0.126,0.703-0.45,0.877l-12.775,1.453c-1.428,0.163-2.252-0.432-2.397-1.723l1.642-13.403
		c-0.124-1.087-1.432-1.696-2.52-1.572l-2.786,0.317l-2.415,15.074c-0.284,0.514-0.879,1.339-1.647,2.458l-11.892,1.353
		l-1.339-0.879l8.225-49.324c0.316-0.244,0.754-0.637,1.318-1.114l14.812-1.685c10.125-1.152,15.316,2.732,16.329,11.633
		C665.537,36.697,664.042,42.304,660.852,44.525z M647.108,33.217l-1.835,0.208l-1.287,7.443l4.145-0.472
		c1.768-0.201,2.227-4.039,2.199-5.481C650.198,33.76,649.01,33.001,647.108,33.217z"/>
	<path fill="#FFFFFF" d="M711.161,25.724c0.695,6.116-1.753,11.213-7.328,13.637c2.95,1.73,4.642,4.497,5.082,8.371
		c0.881,7.746-5.213,16.492-13.231,17.404l-24.326,2.767c-0.341,0.039-0.771-0.119-1.148-0.419l-0.062-0.544
		c3.041-18.035,5.422-32.21,8.531-50.254l20.521-2.334c4.554-0.518,11.158,4.307,11.685,8.928L711.161,25.724z M690.621,46.645
		l-2.718,0.309c-0.656,3.31-0.925,5.199-0.886,5.539c0.069,0.611,0.517,0.905,1.332,0.812c0.883-0.101,1.502-0.103,1.979-0.157
		c1.901-0.216,4.035-2.042,3.817-3.944C693.953,47.505,692.456,46.436,690.621,46.645z M694.543,27.271l-3.33,0.379
		c-0.045,0.21-0.469,2.531-1.197,7.019c0.482,0.013,0.764,0.05,0.778,0.186l2.514-0.286c2.039-0.232,3.505-3.083,3.28-5.053
		C696.519,28.905,695.358,27.179,694.543,27.271z"/>
	<path fill="#FFFFFF" d="M748.191,9.397l5.564,48.926l-14.609,1.662l-0.919-8.086l-10.262,1.167l-3.293,8.565l-12.707,1.445
		l-0.418-1.26l18.04-50.164l1.317-1.115l15.766-1.793L748.191,9.397z M736.141,33.552l-1.27-0.268l-3.244,9.591l5.504-0.626
		L736.141,33.552z"/>
	<path fill="#FFFFFF" d="M799.305,3.722l-9.354,49.659l-0.995,0.938l-10.736,1.222l-5.339-22.727l-0.666-1.024l-5.411,25.049
		l-11.348,1.291l-0.208-1.835l8.956-49.544l14.812-1.685l3.605,15.972l0.531,0.421l3.881-17.305l11.483-1.307L799.305,3.722z"/>
</g>
<g>
	<path fill="#FFFFFF" d="M371.294,143.795c0.245-1.69,0.269-3.203,0.163-4.386c-0.22-2.443-1.064-3.877-3.114-3.693
		c-1.892,0.17-4.661,3.836-6.523,10.52c-1.726,6.434-1.867,11.055-1.591,14.129c0.22,2.443,1.502,3.439,3.158,3.292
		c1.97-0.179,3.786-2.962,5.446-8.356l17.105-1.539c-2.468,10.552-9.969,24.339-21.478,25.375s-19.649-6.419-20.826-19.504
		c-1.418-15.766,8.642-38.206,26.221-39.787c10.405-0.936,17.342,6.387,18.313,17.186c0.149,1.656,0.146,3.404,0.073,5.238
		L371.294,143.795z"/>
	<path fill="#FFFFFF" d="M430.683,144.095l-1.591,0.859c-0.444,0.358-0.896,0.637-0.84,1.267c0.085,0.946,2.453,4.309,2.604,5.965
		c0.271,0.372,0.413,1.075,0.491,1.941c0.233,2.603-0.479,6.163-2.053,10.754l0.532,5.912l0.371,0.602
		c0.043,0.475-0.165,0.812-0.545,1.004l-14.819,1.332c-1.655,0.149-2.594-0.561-2.729-2.058l2.266-15.462
		c-0.113-1.262-1.61-2.001-2.871-1.888l-3.232,0.291l-3.206,17.375c-0.344,0.588-1.054,1.525-1.973,2.8l-13.795,1.241l-1.525-1.057
		l10.86-56.842c0.373-0.272,0.889-0.715,1.556-1.251l17.185-1.546c11.746-1.056,17.646,3.579,18.574,13.905
		C436.316,135.165,434.433,141.613,430.683,144.095z M415.089,130.638l-2.128,0.192l-1.692,8.575l4.81-0.433
		c2.049-0.185,2.685-4.612,2.693-6.282C418.649,131.351,417.296,130.44,415.089,130.638z"/>
	<path fill="#FFFFFF" d="M480.668,110.515l5.105,56.756l-16.948,1.524l-0.844-9.381l-11.903,1.07l-4.044,9.82l-14.741,1.326
		l-0.45-1.469l22.24-57.549l1.557-1.251l18.288-1.645L480.668,110.515z M466.067,138.132l-1.462-0.346l-4.018,11.011l6.386-0.574
		L466.067,138.132z"/>
	<path fill="#FFFFFF" d="M535.377,104.721l-3.125,15.618l-18.761,1.688l-1.247,6.469l14.348-1.291l-3.089,15.139l-14.347,1.29
		l-4.542,21.943l-16.87,1.519l11.845-59.155L535.377,104.721z"/>
	<path fill="#FFFFFF" d="M580.086,100.857l-3.045,15.611l-13.401,1.205l-7.786,43.294l-16.477,1.482l-0.623-0.739l8.332-42.548
		l-13.401,1.206l3.125-15.618L580.086,100.857z"/>
	<path fill="#FFFFFF" d="M645.816,94.787l-3.124,15.618l-18.763,1.687l-1.246,6.469l14.348-1.291l-3.088,15.138l-14.349,1.291
		l-4.542,21.943l-16.87,1.518l11.847-59.155L645.816,94.787z"/>
	<path fill="#FFFFFF" d="M687.674,91.896l5.104,56.757l-16.948,1.524l-0.844-9.381l-11.902,1.07l-4.044,9.821l-14.741,1.326
		l-0.45-1.469l22.24-57.548l1.556-1.251l18.289-1.645L687.674,91.896z M673.072,119.513l-1.462-0.346l-4.017,11.011l6.386-0.574
		L673.072,119.513z"/>
	<path fill="#FFFFFF" d="M728.365,87.521l-10.52,58.877l-16.554,1.489l-0.544-0.746l11.298-58.153L728.365,87.521z"/>
	<path fill="#FFFFFF" d="M770.124,113.564l-1.592,0.859c-0.444,0.358-0.896,0.637-0.84,1.267c0.085,0.946,2.454,4.309,2.603,5.965
		c0.271,0.372,0.414,1.075,0.492,1.941c0.234,2.603-0.479,6.162-2.052,10.755l0.53,5.912l0.372,0.602
		c0.043,0.474-0.165,0.81-0.546,1.003l-14.818,1.333c-1.655,0.148-2.595-0.562-2.729-2.059l2.266-15.462
		c-0.114-1.262-1.611-2.001-2.872-1.888l-3.231,0.291l-3.206,17.374c-0.345,0.588-1.055,1.525-1.973,2.8l-13.796,1.241l-1.524-1.055
		l10.86-56.842c0.372-0.272,0.889-0.715,1.556-1.251l17.185-1.546c11.746-1.056,17.646,3.579,18.574,13.905
		C775.757,104.634,773.873,111.082,770.124,113.564z M754.529,100.107l-2.128,0.191l-1.692,8.576l4.809-0.433
		c2.051-0.185,2.686-4.613,2.693-6.282C758.09,100.82,756.736,99.909,754.529,100.107z"/>
</g>
<g>
	<path fill="#FFFFFF" d="M365.284,209.286l-2.739,0.136l-1.436,5.452l-3.946,0.196c-0.067-0.062-0.178-0.121-0.31-0.159
		l4.063-15.673c0.129-0.007,0.297-0.079,0.509-0.199l4.872-0.241c2.565-0.127,3.898,1.037,4.021,3.518
		c0.033,0.667-0.136,1.627-0.31,2.457C369.612,207.234,367.526,209.175,365.284,209.286z M365.998,203.222
		c-0.02-0.389-0.352-0.566-0.999-0.533l-0.732,0.036l-0.729,2.736l1.509-0.075c0.557-0.135,0.766-0.684,0.939-1.969
		C366.004,203.352,366.001,203.286,365.998,203.222z"/>
	<path fill="#FFFFFF" d="M378.615,202.745l-0.929,3.483c-1.394,0.22-2.375,0.918-2.942,2.134l-1.586,5.937l-3.298,0.162
		l3.042-11.431l3.232-0.16l-0.275,0.966c0.766-0.665,1.591-1.031,2.432-1.072L378.615,202.745z"/>
	<path fill="#FFFFFF" d="M381.733,208.556c-0.146,0.548-0.209,0.982-0.195,1.284c0.04,0.798,0.338,1.172,0.899,1.145
		c0.624-0.03,1.077-0.483,1.336-1.362l3.063-0.152c0.003,0.064,0.077,0.276,0.083,0.406c-0.25,2.389-2.354,3.942-5.006,4.074
		c-2.328,0.115-3.555-1.099-3.68-3.62c-0.15-3.018,1.106-6.043,2.522-7.107c0.792-0.601,1.941-0.938,3.473-1.015
		c2.22-0.11,3.394,0.89,3.497,2.981c0.037,0.755-0.084,1.798-0.366,3.088L381.733,208.556z M384.512,206.624
		c0.151-0.439,0.218-0.832,0.201-1.178c-0.027-0.561-0.3-0.828-0.817-0.801c-0.798,0.039-1.346,0.736-1.69,2.093L384.512,206.624z"
		/>
	<path fill="#FFFFFF" d="M393.885,205.619c0.018-0.066,0.014-0.153,0.008-0.26c-0.022-0.431-0.249-0.635-0.658-0.615
		c-0.367,0.018-0.549,0.242-0.527,0.673c0.055,1.101,3.03,2.27,3.112,3.93c0.104,2.092-1.944,3.922-3.82,4.015l-1.056,0.054
		c-1.531,0.075-3.231-1.526-3.322-3.358c-0.018-0.345,0.01-0.691,0.098-1.063l2.976-0.148l0.032,0.646
		c0.037,0.754,0.293,1.132,0.79,1.108c0.538-0.027,0.784-0.321,0.754-0.903c-0.033-0.668-2.008-2.146-2.1-2.251
		c-0.48-0.561-0.752-1.216-0.788-1.927c-0.107-2.157,1.571-3.623,3.92-3.74c2.157-0.106,3.288,0.918,3.396,3.095
		c0.012,0.237-0.003,0.368-0.013,0.607L393.885,205.619z"/>
	<path fill="#FFFFFF" d="M400.617,207.62c-0.146,0.548-0.211,0.981-0.196,1.283c0.039,0.799,0.338,1.172,0.898,1.145
		c0.626-0.03,1.079-0.483,1.339-1.361l3.061-0.153c0.004,0.065,0.078,0.276,0.086,0.406c-0.25,2.389-2.354,3.943-5.006,4.074
		c-2.329,0.115-3.556-1.1-3.681-3.622c-0.15-3.017,1.106-6.04,2.522-7.104c0.792-0.602,1.941-0.938,3.472-1.016
		c2.22-0.109,3.395,0.89,3.497,2.981c0.037,0.756-0.084,1.799-0.365,3.088L400.617,207.62z M403.396,205.688
		c0.151-0.438,0.216-0.832,0.2-1.177c-0.026-0.561-0.299-0.828-0.817-0.801c-0.797,0.038-1.346,0.736-1.689,2.093L403.396,205.688z"
		/>
	<path fill="#FFFFFF" d="M414.719,212.235l-3.513,0.175c1.885-7.289,1.883-7.334,1.881-7.377c-0.017-0.323-0.218-0.464-0.584-0.445
		c-0.885,0.044-1.405,0.415-1.607,1.138l-1.825,6.789l-3.513,0.176l2.796-10.728c0.216-0.445,0.828-0.733,1.842-0.784l1.875-0.093
		l-0.256,0.922c0.463-0.695,1.33-1.062,2.537-1.121c1.271-0.063,2.739,0.751,2.8,1.979c0.008,0.15-0.009,0.281-0.046,0.39
		L414.719,212.235z"/>
	<path fill="#FFFFFF" d="M425.046,201.309l-0.8,3.021l-1.832,0.091l-2.004,7.534l-3.061,0.151c-0.115-0.103-0.181-0.164-0.185-0.229
		l1.929-7.292l-0.948,0.047l0.866-3.025l0.883-0.043l0.981-3.767l3.362-0.165l-1.044,3.769L425.046,201.309z"/>
	<path fill="#FFFFFF" d="M428.877,206.216c-0.146,0.547-0.211,0.982-0.197,1.285c0.04,0.797,0.342,1.172,0.9,1.144
		c0.626-0.031,1.077-0.484,1.338-1.362l3.061-0.151c0.004,0.064,0.078,0.275,0.085,0.406c-0.248,2.389-2.354,3.942-5.006,4.073
		c-2.329,0.115-3.555-1.098-3.679-3.62c-0.151-3.017,1.104-6.042,2.521-7.107c0.791-0.601,1.94-0.938,3.473-1.014
		c2.22-0.111,3.394,0.89,3.497,2.98c0.037,0.755-0.083,1.799-0.365,3.088L428.877,206.216z M431.654,204.285
		c0.153-0.438,0.218-0.832,0.202-1.177c-0.027-0.562-0.301-0.827-0.818-0.802c-0.798,0.04-1.346,0.736-1.688,2.094L431.654,204.285z
		"/>
	<path fill="#FFFFFF" d="M446.148,195.03l-4.13,15.634c-0.018,0.067-0.102,0.135-0.226,0.228l-3.125,0.156l0.219-0.811
		c-0.34,0.578-0.95,0.889-1.855,0.935c-1.465,0.073-2.428-1.045-2.521-2.899c-0.031-0.647,0.042-1.343,0.243-2.065
		c1.166-4.379,2.956-6.63,5.457-6.753c0.475-0.023,0.974,0.038,1.499,0.163l1.067-4.161c0.081-0.132,0.185-0.223,0.312-0.274
		L446.148,195.03z M440.728,203.358c0.038-0.108,0.054-0.218,0.05-0.303c-0.014-0.281-0.236-0.4-0.688-0.378
		c-0.927,0.046-1.657,1.012-2.146,2.895c-0.237,0.897-0.461,1.622-0.445,1.945c0.03,0.604,0.369,0.89,0.974,0.859
		c0.561-0.027,1.017-0.418,1.182-1.01L440.728,203.358z"/>
	<path fill="#FFFFFF" d="M455.335,210.35c-0.798,0.04-1.373-0.234-1.726-0.843l-0.219,0.81l-3.127,0.155
		c-0.067-0.083-0.114-0.146-0.117-0.21l4.142-15.807l3.062-0.152c0.114,0.123,0.161,0.208,0.163,0.251l-1.103,4.333
		c0.532-0.178,1.046-0.269,1.498-0.292c1.854-0.092,2.837,0.983,2.948,3.248c0.051,1.035-0.084,2.209-0.429,3.543
		C459.764,208.121,458.116,210.212,455.335,210.35z M457.36,202.792c-0.032-0.646-0.351-0.953-0.934-0.926
		c-0.561,0.028-0.915,0.284-1.044,0.765c-0.981,3.701-0.98,3.744-0.978,3.788c0.017,0.344,0.348,0.501,0.995,0.471
		c0.733-0.037,1.3-0.8,1.682-2.267C457.281,203.836,457.381,203.226,457.36,202.792z"/>
	<path fill="#FFFFFF" d="M475.114,198.26l-10.278,15.854l-3.946,0.196l3.786-6.002l-0.938-9.785l3.559-0.177l0.43,5.187l3.385-5.376
		l3.708-0.185L475.114,198.26z"/>
	<path fill="#FFFFFF" d="M494.641,192.451l-3.528,15.992l-4.506,0.225l-0.144-0.273l1.286-5.446l-2.608,0.13l-1.379,5.729
		l-4.614,0.229l3.873-16.01l4.634-0.23l-1.508,6.19l2.565-0.127l1.465-6.188L494.641,192.451z"/>
	<path fill="#FFFFFF" d="M505.581,192.146l0.77,15.521l-4.634,0.23l-0.127-2.566l-3.256,0.162l-1.209,2.631l-4.032,0.2l-0.105-0.406
		l6.688-15.438l0.438-0.323l5-0.249L505.581,192.146z M501.301,199.51l-0.395-0.109l-1.215,2.956l1.747-0.087L501.301,199.51z"/>
	<path fill="#FFFFFF" d="M521.792,191.387l-3.943,15.451l-0.334,0.275l-3.405,0.169l-1.225-7.266l-0.189-0.336l-2.208,7.78
		l-3.6,0.179l-0.028-0.583l3.814-15.423l4.7-0.233l0.814,5.101l0.159,0.145l1.571-5.371l3.643-0.181L521.792,191.387z"/>
	<path fill="#FFFFFF" d="M534.254,201.699c-0.544,2.103-1.481,4.115-4.364,4.8l-7.76,0.386l-0.018-0.344
		c0.008,0.171,3.976-15.671,4.105-15.678l4.461-0.221c2.782-0.138,4.874,1.962,4.978,4.032c0.012,0.237,0.002,0.477-0.052,0.715
		L534.254,201.699z M528.593,202.586c1.1-0.055,1.503-1.09,1.61-1.528c1.084-4.267,1.134-4.594,1.127-4.723
		c-0.038-0.775-0.631-1.395-1.3-1.361l-0.754,0.037l-2.049,7.515l0.072,0.123L528.593,202.586z"/>
	<path fill="#FFFFFF" d="M556.418,189.365l-4.132,16.022l-4.398,0.219l-0.098-0.255l1.615-6.626l-3.63,6.964l-0.212,0.075
		l-2.867,0.142l0.102-8.866l-2.452,8.94l-4.118,0.204l-0.181-0.163l4.15-15.636l0.313-0.23l6.165-0.307l0.19,0.337l-0.088,4.326
		l0.12,0.23l2.839-5.045L556.418,189.365z"/>
	<path fill="#FFFFFF" d="M567.725,189.062l0.771,15.521l-4.635,0.229l-0.126-2.564l-3.257,0.16l-1.208,2.632l-4.032,0.199
		l-0.106-0.406l6.689-15.437l0.437-0.323l5.001-0.249L567.725,189.062z M563.445,196.428l-0.394-0.11l-1.215,2.955l1.746-0.085
		L563.445,196.428z"/>
	<path fill="#FFFFFF" d="M582.819,199.291c-0.544,2.102-1.483,4.114-4.365,4.798l-7.76,0.386l-0.018-0.344
		c0.009,0.171,3.977-15.67,4.105-15.677l4.462-0.222c2.782-0.137,4.872,1.963,4.977,4.033c0.012,0.237,0.002,0.476-0.051,0.714
		L582.819,199.291z M577.158,200.176c1.099-0.055,1.502-1.089,1.61-1.527c1.084-4.268,1.133-4.595,1.127-4.724
		c-0.039-0.775-0.631-1.395-1.302-1.36l-0.752,0.036l-2.048,7.515l0.07,0.124L577.158,200.176z"/>
	<path fill="#FFFFFF" d="M597.654,187.34l-1,4.22l-5.131,0.254l-0.452,1.771l3.901-0.192l-1.01,4.068l-3.9,0.195l-0.412,1.706
		l5.152-0.255l-1.001,4.22l-9.787,0.485l3.874-15.988L597.654,187.34z"/>
	<path fill="#FFFFFF" d="M616.511,197.62c-0.545,2.102-1.483,4.113-4.364,4.798l-7.763,0.386l-0.018-0.345
		c0.008,0.172,3.977-15.669,4.106-15.676l4.463-0.221c2.78-0.139,4.872,1.962,4.976,4.032c0.012,0.238,0.002,0.476-0.051,0.715
		L616.511,197.62z M610.85,198.505c1.101-0.056,1.502-1.091,1.611-1.527c1.085-4.268,1.133-4.595,1.125-4.725
		c-0.037-0.774-0.629-1.394-1.299-1.36l-0.755,0.036l-2.046,7.515l0.069,0.125L610.85,198.505z"/>
	<path fill="#FFFFFF" d="M631.346,185.668l-1,4.22l-5.134,0.253l-0.448,1.773l3.899-0.194l-1.008,4.07l-3.902,0.193l-0.412,1.707
		l5.152-0.255l-1.002,4.219l-9.785,0.488l3.874-15.99L631.346,185.668z"/>
	<path fill="#FFFFFF" d="M643.937,185.087l-1.001,4.219l-3.663,0.182l-2.596,11.712l-4.506,0.225l-0.161-0.209l2.734-11.503
		l-3.666,0.182l1.023-4.221L643.937,185.087z"/>
	<path fill="#FFFFFF" d="M654.597,192.661l-0.441,0.216c-0.125,0.093-0.251,0.163-0.243,0.338c0.014,0.258,0.621,1.201,0.645,1.654
		c0.07,0.104,0.103,0.296,0.114,0.533c0.035,0.711-0.199,1.674-0.679,2.908l0.081,1.616l0.094,0.169
		c0.007,0.128-0.054,0.218-0.158,0.268l-4.054,0.201c-0.452,0.022-0.701-0.182-0.72-0.592l0.785-4.188
		c-0.017-0.345-0.417-0.562-0.761-0.546l-0.885,0.044l-1.063,4.699c-0.101,0.156-0.304,0.403-0.568,0.741l-3.772,0.187l-0.403-0.304
		l3.58-15.368c0.105-0.07,0.25-0.186,0.438-0.324l4.699-0.233c3.212-0.16,4.768,1.167,4.91,3.991
		C656.23,190.289,655.646,192.025,654.597,192.661z M650.496,188.822l-0.581,0.029l-0.556,2.319l1.315-0.066
		c0.561-0.028,0.782-1.228,0.802-1.683C651.46,189.058,651.1,188.793,650.496,188.822z"/>
	<path fill="#FFFFFF" d="M661.364,200.127c-3.257,0.161-5.125-2.663-5.27-5.595c-0.091-1.834,0.375-3.778,1.1-5.284
		c1.335-2.724,3.976-5.232,6.972-5.382c3.557-0.177,5.011,2.562,5.16,5.579c0.092,1.854-0.307,3.797-0.99,5.279
		C667.046,197.489,664.361,199.979,661.364,200.127z M661.682,190.861c-0.717,1.656-1.061,2.99-1.01,4.005
		c0.032,0.669,0.286,1.002,0.739,0.979c0.798-0.039,1.635-1.01,2.469-2.932c0.369-0.841,1.016-2.6,0.959-3.743
		c-0.032-0.646-0.292-1.088-0.916-1.057C663.211,188.149,662.458,189.073,661.682,190.861z"/>
	<path fill="#FFFFFF" d="M678.447,183.373l-3.51,15.929l-4.527,0.225l-0.14-0.209l3.715-15.723L678.447,183.373z"/>
	<path fill="#FFFFFF" d="M690.712,182.765l-1.001,4.219l-3.663,0.182l-2.596,11.712l-4.506,0.225l-0.16-0.209l2.733-11.503
		l-3.666,0.183l1.024-4.222L690.712,182.765z"/>
</g>
</svg>
