<svg xmlns="http://www.w3.org/2000/svg" xmlns:xlink="http://www.w3.org/1999/xlink" version="1.1" id="Layer_1" x="0" y="0" width="800" height="320" viewBox="0" enable-background="new 0 0 800 320" xml:space="preserve">
  <path fill="#FFFFFF" d="M262.05 58.5l7.3-0.69 3.82-2.43 -2.08-3.47 -3.82-3.48h-3.48l1.39 3.82 -3.48 2.78 -3.47 1.04 3.48 1.74L262.05 58.5zM340.25 218.03l1.05-1.39 -0.35-2.78H340.6l-3.48-5.91 -1.73-4.17 -2.09-7.64 -2.08-7.3 -2.08-3.47 -3.83-14.25 -4.17-7.3 -3.48-3.48 -3.48-1.39 -3.82-0.69 -5.56 4.17 -3.47 1.39 -3.82 3.48 -3.48 1.39 0.7 3.47 -1.73 6.26 -3.48 2.78 -1.74 3.48 -2.78 3.82 -3.48-1.39 -3.83-0.35 -4.52-4.17 -0.35-5.56 0.7-7.3 3.82-2.78 3.83-0.69 3.47-5.56 0.35-7.3 1.04-3.48 3.48-2.08 3.48-3.48 -1.39-11.47 0.35-7.3 -1.74-7.3 -1.73-3.48 -3.83-2.43 -2.08-3.47 1.39-4.52 3.48-0.69v-3.47l-2.09-1.39 -2.78-3.47 -1.04-3.48 -3.83-2.43h-3.47l-3.82-1.74 -7.65-2.08 -3.48-1.74h-3.82l-3.48-1.04 -2.09-3.48 -3.48-2.08 -3.47-1.04 -3.13 0.7h-3.47l-3.48-2.78 -3.48-1.04 -3.82-2.08 -3.13 2.78 -3.47 1.74 -2.09 3.82 -3.48 4.17v3.48l1.74 3.82 3.48 2.08 0.35 3.13h-4.87l-3.82 2.09 -3.48 2.78 -2.43 3.47 1.74 11.12v4.17l-0.69 3.48 -1.04 3.82 -3.13 3.48 1.04-3.48v-7.3l-1.39 0.35 -1.05 7.3 -2.43 3.48 -0.69-3.48 1.39-3.47 -1.74-3.82 1.04-2.43 1.04-10.08 -3.47 2.78 -1.39 3.48 -2.43 3.47 -0.69 3.48 -2.78 3.48 -3.47-1.04 -4.52 6.6 0.35 3.47 -3.13 3.48 -3.48 2.78 2.09 6.95 -0.7 6.26 0.7 3.48 -0.35 3.82 -4.17 10.78 -3.13 3.83 -0.34 3.47 2.08 3.48 2.78 10.77 -2.43 3.83 -1.39 3.47 0.7 3.48 10.08 19.11 3.48-1.39 -2.09 3.48 4.87 11.12 2.09 14.6v10.78l-2.09 13.2 -1.39 3.82 -3.82 7.3 -3.13 10.77 -1.74 3.48 -2.43 3.82 -3.48 3.48 -1.39 1.04h1.74l20.51-2.09 58.74-7.29 4.17 3.13 37.89-6.26 17.04-3.48 2.43-7.3 6.26-10.77 0.35-10.77 1.04-3.48 1.04-1.74 0.35-0.69 4.17-3.13 2.78-3.48 -0.35-7.64 2.43-3.48 0.7-3.13 3.82-2.08 1.74 2.43 1.04 3.48 -0.69 1.05 2.43-1.05 2.09-3.48 0.69-7.64 -1.05-3.48L340.25 218.03zM309.03 258.06l-25.52 29.61 -25.67-29.77c-2.3-2.7-3.3-5.62-2.98-8.74 0.33-3.27 1.89-5.99 4.69-8.18 2.8-2.19 5.9-3.12 9.29-2.77 3.26 0.33 6.04 1.85 8.34 4.57l6.33 7.58 6.28-7.51c2.31-2.71 5.08-4.21 8.32-4.53 3.37-0.32 6.46 0.61 9.22 2.82 2.77 2.21 4.31 4.94 4.63 8.21C312.24 252.47 311.27 255.37 309.03 258.06zM172.03 67.89l3.48 0.35 6.95-2.08h3.83l3.47-2.09 3.13-5.56 6.95-1.04 3.82 1.04 3.48-0.35 7.3 2.44 7.65 6.25 3.48 1.39v-6.6l1.04-3.82 3.48-0.69 3.48 2.08 3.48-1.39 17.03 0.35 3.48-1.04 -2.08-3.48 -3.83-1.74 -0.35-3.48 -3.47-1.74h-1.04l-3.48-2.43 -0.34-3.83 -1.04-3.47 -2.08-3.82 -3.13-3.48h-1.74l-1.04 0.7 -0.35 0.35 -2.08 3.13 -3.48 1.74 -2.43-3.48 -7.3 2.78 -6.95-1.04 -1.74-3.13 -0.35-12.86 -6.95 1.04 -3.47 1.39 -6.95 4.17 -3.48 1.05 -14.6 1.04 -3.48 1.39 -6.25 1.39 -3.48 3.48 -7.3 4.52 -5.56 7.3 -3.13-1.39 -3.48 0.35 -3.82-0.69 -3.48-3.13 -8.34 3.13 -3.48 0.35 -3.82-1.74 -2.08-3.82 -6.6-6.95 -2.09-3.82 -3.48-0.69 -3.47-3.13 -3.82-0.7h-7.3l-3.48 1.39 -2.44 3.48 -1.74 1.04 3.13-7.3 -3.47 3.47 -3.48 2.09 -1.04 3.48 -1.39 1.39 -1.04-3.47 0.7-7.3 -5.91-7.3 -2.43-1.39 -2.44-3.47 -7.65 8.69 -2.08 3.47 -7.3 3.13 -3.83 3.82 -3.47 2.43 -3.47 1.39 -3.82 0.35 -3.48 1.04h-3.82l-3.82 2.08 -6.6 7.3L4.16 47.04l-3.47 2.09 1.74 1.74 3.82 1.39 3.48 2.78 4.17 6.95 38.23 7.3 12.51 5.56 1.39-0.35 7.3 1.04 3.47-1.04 3.82 1.39 9.39 1.04 3.48 2.09 0.69 6.6 3.48 0.35 5.56 1.74 3.82 3.48 -1.04 1.04 1.74 3.48 -0.69 7.3 -1.39 3.48 1.39 3.13 3.48-1.04 3.82-0.35 -2.09 7.3 0.35 3.47 3.48 3.13h0.35l1.74 0.69 -0.34-3.47 3.82-5.91 5.21-10.77 2.09-7.3 2.08-3.82 3.13-3.82 1.39-6.95 3.13-5.21 -1.39 3.48 1.39 3.83 2.09 3.48 3.47-3.13 0.7-2.08 3.48-3.82 3.48-1.39 3.48 0.7L155 80.4l-3.47 2.78 -1.74 4.52 3.48 0.35 2.43-3.82 3.48-3.48 3.82-2.78 0.35-4.17 2.09-3.47 2.78-1.74L172.03 67.89zM194.28 79.36l-0.69 3.48v3.82l3.82-1.04 -0.69-7.3 0.35-1.04L194.28 79.36z"/>
  <path fill="#FFFFFF" d="M353.56 58.33l-4.07 26.68 -10.81 1.42 4.25-26.7 -19.52 2.56 -10.88 69.05 19.43-2.55 3.86-24.71 10.99-1.44 -3.57 23.47 0.7 1.11 18.98-2.49 9.42-68.86L353.56 58.33zM470.42 42.88l-4.79 23.27 -0.72-0.55 -5.2-21.3 -19.79 2.6 -10.84 66.55 0.32 2.45 15.17-2 6.66-33.67 0.92 1.36 7.67 30.31 14.35-1.88 1.31-1.28 11.37-66.71 -1.07-1.15L470.42 42.88zM416.48 49.97l-21.07 2.77 -1.74 1.52 -22.99 67.59 0.59 1.68 16.98-2.23 4.21-11.55 13.71-1.8 1.42 10.81 19.52-2.57 -8.59-65.38L416.48 49.97zM397.12 96.02l4.13-12.92 1.71 0.33 1.53 11.63L397.12 96.02zM598.52 26.44l-10.27 22.32 -0.59-0.94 -1.36-22.95 -0.92-1.35 -25.97 3.41 -1.24 1.09 -11.94 72.17 0.82 0.63 17.34-2.28 7.3-38.65 2.63 37.53 12.08-1.58 0.87-0.39 12.96-30.71 -4.56 28.59 0.51 1.04 18.53-2.43 11.97-69.19L598.52 26.44zM538.33 46.04c-1.28-2.02-2.91-3.76-4.89-5.22 -1.98-1.46-4.28-2.56-6.9-3.29 -2.62-0.74-5.38-0.91-8.29-0.53l-18.8 2.47c-0.06 0.01-0.28 0.99-0.67 2.95 -0.39 1.96-0.86 4.54-1.43 7.76 -0.56 3.22-1.2 6.85-1.89 10.92 -0.7 4.07-1.41 8.22-2.15 12.48 -0.73 4.25-1.45 8.41-2.15 12.48 -0.69 4.06-1.31 7.69-1.85 10.86 -0.54 3.18-0.98 5.7-1.31 7.56 -0.34 1.86-0.52 2.77-0.53 2.7l0.2 1.45 32.69-4.29c3.02-0.95 5.5-2.2 7.45-3.75 1.95-1.55 3.56-3.29 4.81-5.2 1.26-1.92 2.23-3.97 2.93-6.16 0.7-2.19 1.24-4.41 1.62-6.68l3.54-27.16c0.12-0.94 0.11-1.96-0.03-3.05C540.4 50.15 539.61 48.05 538.33 46.04zM522.92 61.64c-0.04 0.41-0.15 1.3-0.34 2.67 -0.19 1.39-0.49 3.39-0.91 6.04 -0.42 2.64-1.04 6.26-1.85 10.86 -0.06 0.44-0.22 1.03-0.46 1.77 -0.24 0.74-0.59 1.48-1.05 2.22 -0.45 0.74-1.08 1.39-1.86 1.95 -0.79 0.57-1.75 0.93-2.91 1.07l-5.45 0.72 -0.34-0.51 6.08-32.48 3.18-0.42c1.39-0.18 2.68 0.25 3.87 1.29 1.19 1.05 1.88 2.39 2.1 4.03C522.97 60.97 522.96 61.23 522.92 61.64zM742.92 19.15c-1.28-2.02-2.91-3.76-4.89-5.22 -1.98-1.46-4.28-2.56-6.9-3.29 -2.62-0.73-5.38-0.91-8.28-0.53l-18.8 2.47c-0.06 0.01-0.28 1-0.67 2.96 -0.39 1.96-0.87 4.55-1.43 7.76 -0.56 3.22-1.19 6.85-1.89 10.92 -0.7 4.07-1.42 8.22-2.15 12.47 -0.73 4.26-1.45 8.41-2.15 12.48 -0.7 4.06-1.32 7.69-1.85 10.86 -0.53 3.18-0.97 5.71-1.31 7.56 -0.34 1.86-0.52 2.77-0.52 2.7l0.19 1.45 32.69-4.29c3.02-0.95 5.5-2.2 7.46-3.75 1.95-1.55 3.55-3.28 4.81-5.21 1.26-1.92 2.23-3.97 2.93-6.15 0.7-2.19 1.24-4.41 1.62-6.68l3.54-27.16c0.12-0.93 0.11-1.95-0.03-3.05C744.98 23.26 744.2 21.17 742.92 19.15zM727.51 34.75c-0.04 0.41-0.15 1.3-0.34 2.68 -0.19 1.38-0.49 3.39-0.92 6.03 -0.42 2.65-1.04 6.27-1.85 10.86 -0.06 0.45-0.21 1.03-0.45 1.78 -0.24 0.74-0.6 1.48-1.05 2.21 -0.46 0.74-1.08 1.39-1.86 1.96 -0.79 0.56-1.76 0.92-2.91 1.07l-5.44 0.71 -0.35-0.51 6.07-32.48 3.18-0.42c1.39-0.18 2.68 0.25 3.86 1.29 1.19 1.05 1.88 2.39 2.1 4.02C727.56 34.08 727.55 34.35 727.51 34.75zM797.62 18.19L800.4 0l-41.14 5.4 -10.89 68.96 41.23-5.42 2.78-18.19 -21.7 2.85 1.15-7.36 16.44-2.16 2.87-17.56 -16.43 2.16 1.3-7.65L797.62 18.19zM672.35 16.73l-21.07 2.77 -1.74 1.52 -22.99 67.59 0.59 1.68 16.98-2.23 4.21-11.54 13.71-1.8 1.42 10.8 19.52-2.56 -8.59-65.38L672.35 16.73zM653 62.79l4.12-12.92 1.71 0.33 1.52 11.62L653 62.79z"/>
  <path fill="#FFFFFF" d="M468.98 147.11l3.44-18.08 -41.3 3.92 -13.37 68.52 41.39-3.93 3.44-18.08 -21.79 2.07 1.42-7.31 16.5-1.56 3.5-17.45 -16.51 1.56 1.58-7.6L468.98 147.11zM414.28 146.09c-1.21-2.06-2.77-3.86-4.69-5.39 -1.92-1.53-4.19-2.72-6.78-3.54 -2.59-0.83-5.35-1.1-8.26-0.83l-18.87 1.79c-0.06 0.01-0.32 0.99-0.78 2.93 -0.45 1.95-1.03 4.52-1.7 7.71 -0.68 3.19-1.44 6.81-2.29 10.84 -0.84 4.04-1.71 8.17-2.59 12.39 -0.89 4.22-1.75 8.35-2.6 12.39 -0.84 4.04-1.59 7.64-2.24 10.8 -0.65 3.15-1.18 5.66-1.59 7.5 -0.41 1.86-0.61 2.75-0.62 2.68l0.14 1.46 32.82-3.12c3.05-0.84 5.57-2 7.58-3.48 2.01-1.47 3.67-3.15 5-5.03 1.32-1.87 2.37-3.89 3.15-6.05 0.78-2.16 1.4-4.37 1.86-6.62l4.52-27.02c0.15-0.93 0.18-1.95 0.08-3.04C416.2 150.28 415.49 148.16 414.28 146.09zM398.32 161.13c-0.05 0.41-0.2 1.3-0.43 2.67 -0.24 1.37-0.62 3.37-1.14 6 -0.51 2.62-1.26 6.22-2.24 10.79 -0.08 0.44-0.26 1.02-0.52 1.75 -0.27 0.73-0.64 1.46-1.13 2.18 -0.48 0.72-1.13 1.35-1.93 1.88 -0.81 0.54-1.79 0.86-2.95 0.98l-5.47 0.52 -0.33-0.52 7.24-32.25 3.19-0.3c1.4-0.13 2.67 0.35 3.81 1.43 1.15 1.09 1.8 2.45 1.96 4.1C398.4 160.47 398.38 160.73 398.32 161.13zM475.63 128.9l-3.53 18.1 15.5-1.48 -9.4 49.29 0.73 0.85 19.06-1.81 8.76-50.14 15.5-1.47 3.44-18.08L475.63 128.9zM633.98 179.94l0.64 0.86 19.15-1.82 11.84-68.19 -18.87 1.79L633.98 179.94zM673.48 110.12l-3.53 18.09 15.5-1.47 -9.4 49.28 0.73 0.85 19.05-1.81 8.76-50.15 15.51-1.47 3.43-18.08L673.48 110.12zM635.45 144.54c0.1-3.97-0.28-7.89-1.17-11.75 -0.71-3.16-1.76-6.1-3.13-8.82 -1.38-2.72-3.12-5.02-5.24-6.89 -2.11-1.86-4.61-3.18-7.47-3.93 -2.87-0.75-6.15-0.71-9.84 0.13 -3.1 0.71-5.99 1.97-8.68 3.77 -2.69 1.8-5.11 3.97-7.25 6.49 -2.15 2.52-4 5.28-5.54 8.26 -1.55 2.98-2.78 6.02-3.7 9.11 -0.97 3.41-1.55 7.14-1.73 11.15 -0.18 4.02 0.17 7.94 1.03 11.75 0.69 3.04 1.82 5.89 3.36 8.57 1.55 2.69 3.46 4.97 5.7 6.87 2.25 1.9 4.81 3.24 7.69 4.03 2.87 0.79 6 0.79 9.4 0.02 3.09-0.71 5.98-1.96 8.67-3.77 2.69-1.8 5.11-3.95 7.26-6.44 2.15-2.49 4.02-5.25 5.59-8.27 1.57-3.01 2.77-6.09 3.62-9.23C634.89 152.18 635.36 148.51 635.45 144.54zM615.45 143.51c-0.18 1.52-0.4 2.96-0.65 4.33 -0.25 1.37-0.49 2.52-0.71 3.45 -2.05 8.6-4.77 13.3-8.16 14.07 -1.91 0.44-3.18-0.75-3.82-3.54 -0.93-4.11-0.51-9.93 1.27-17.48 1.92-8.08 4.37-12.45 7.35-13.13 1.31-0.29 2.33-0.09 3.05 0.63 0.72 0.71 1.24 1.75 1.55 3.12 0.27 1.19 0.41 2.54 0.41 4.04C615.74 140.49 615.64 142 615.45 143.51zM572.22 124.01c-3.51-2.64-8.66-3.64-15.47-2.99l-19.87 1.89c-0.4 0.34-0.74 0.64-1.02 0.88 -0.28 0.24-0.54 0.44-0.77 0.58l-12.24 65.84 1.77 1.21 15.96-1.51c0.54-0.73 1-1.37 1.38-1.93 0.38-0.55 0.67-0.99 0.88-1.32l3.61-20.13 3.74-0.35c0.73-0.07 1.45 0.09 2.16 0.48 0.72 0.39 1.1 0.96 1.17 1.68l-2.53 17.91c0.17 1.77 1.22 2.56 3.17 2.37l17.14-1.63c0.47-0.23 0.68-0.61 0.63-1.17l-0.43-0.69 -0.65-6.84c1.82-5.38 2.59-9.54 2.31-12.45 -0.1-1.09-0.3-1.84-0.58-2.24 -0.05-0.48-0.23-1.06-0.53-1.74 -0.31-0.67-0.65-1.34-1.02-2.01 -0.37-0.68-0.71-1.3-1.01-1.88 -0.3-0.59-0.46-1-0.48-1.24 -0.04-0.36 0.04-0.65 0.24-0.85 0.2-0.2 0.44-0.41 0.72-0.62l1.84-1c1.1-0.72 2.05-1.7 2.85-2.94 0.8-1.24 1.45-2.64 1.95-4.19 0.49-1.55 0.85-3.19 1.05-4.93 0.21-1.73 0.26-3.45 0.15-5.17C577.76 130.99 575.72 126.65 572.22 124.01zM558.34 143.04c-0.08 0.81-0.25 1.59-0.51 2.35 -0.27 0.76-0.59 1.43-0.96 2.02 -0.38 0.59-0.86 0.91-1.47 0.97l-5.56 0.53 1.91-9.94 2.46-0.23c1.28-0.12 2.29 0.04 3.04 0.5 0.75 0.45 1.16 1.07 1.23 1.86C558.46 141.59 558.42 142.24 558.34 143.04z"/>
</svg>
